<?xml version="1.0" encoding="utf-8"?>
<svg xmlns="http://www.w3.org/2000/svg" xmlns:xlink="http://www.w3.org/1999/xlink" style="margin: auto; background: rgba(255, 255, 255, 0); display: block; shape-rendering: auto;" width="100px" height="100px" viewBox="0 0 100 100" preserveAspectRatio="xMidYMid">
<g transform="translate(50 50)">
<g>
<animateTransform attributeName="transform" type="rotate" values="0;51.42857142857143" keyTimes="0;1" dur="0.3861003861003861s" repeatCount="indefinite"></animateTransform><path d="M23.361292772447335 -5.5 L31.361292772447335 -5.5 L31.361292772447335 5.5 L23.361292772447335 5.5 A24 24 0 0 1 18.86560095543122 14.835400250429132 L18.86560095543122 14.835400250429132 L23.853519370301086 21.09005211017337 L15.253373063152756 27.94843993061944 L10.265454648282887 21.6937880708752 A24 24 0 0 1 0.1637268308481545 23.999441525270132 L0.1637268308481545 23.999441525270132 L-1.6164406408023595 31.798864822724724 L-12.340647674802417 29.351134549205263 L-10.560480203151903 21.551711251750675 A24 24 0 0 1 -18.66143693678227 15.091413832192737 L-18.66143693678227 15.091413832192737 L-25.869187880001622 18.562483745133203 L-30.64190901029476 8.651826198206603 L-23.43415806707541 5.180756285266137 A24 24 0 0 1 -23.43415806707541 -5.18075628526613 L-23.43415806707541 -5.18075628526613 L-30.64190901029476 -8.651826198206596 L-25.869187880001633 -18.5624837451332 L-18.661436936782277 -15.091413832192735 A24 24 0 0 1 -10.560480203151917 -21.55171125175067 L-10.560480203151917 -21.55171125175067 L-12.340647674802433 -29.35113454920526 L-1.6164406408023626 -31.79886482272472 L0.16372683084815395 -23.999441525270132 A24 24 0 0 1 10.265454648282876 -21.693788070875208 L10.265454648282876 -21.693788070875208 L15.253373063152743 -27.948439930619447 L23.853519370301086 -21.090052110173374 L18.86560095543122 -14.835400250429135 A24 24 0 0 1 23.36129277244733 -5.5000000000000115 M0 -48A48 48 0 1 0 0 48 A48 48 0 1 0 0 -48" fill="#808080"></path></g></g>
<!-- [ldio] generated by https://loading.io/ --></svg>